<svg width="128" height="128" viewBox="0 0 128 128" fill="none" xmlns="http://www.w3.org/2000/svg">
<rect x="8" y="80" width="112" height="36" rx="9" fill="url(#paint0_linear_105_255)"/>
<rect x="8" y="15" width="112" height="97" rx="9" fill="#F6F5F4"/>
<path d="M14 31C14 26.0294 18.0294 22 23 22H43.3246C45.0704 22 46.7786 22.5078 48.241 23.4615L55.259 28.0385C56.7214 28.9922 58.4296 29.5 60.1754 29.5H105C109.971 29.5 114 33.5294 114 38.5V96C114 100.971 109.971 105 105 105H23C18.0294 105 14 100.971 14 96V31Z" fill="#1A5FB4"/>
<path d="M14 42C14 37.0294 18.0294 33 23 33H58.5H105C109.971 33 114 37.0294 114 42V49C114 53.9706 109.971 58 105 58H23C18.0294 58 14 53.9706 14 49V42Z" fill="black" fill-opacity="0.08"/>
<path d="M20 42C20 37.0294 24.0294 33 29 33H59.605H100C104.971 33 109 37.0294 109 42V96C109 100.971 104.971 105 100 105H29C24.0294 105 20 100.971 20 96V42Z" fill="url(#paint1_linear_105_255)"/>
<path d="M14 44C14 39.0294 18.0294 35 23 35H58.5H105C109.971 35 114 39.0294 114 44V96C114 100.971 109.971 105 105 105H23C18.0294 105 14 100.971 14 96V44Z" fill="#3584E4"/>
<path fill-rule="evenodd" clip-rule="evenodd" d="M114 91H14V92.6623H114V91ZM114 95.1558H14V96.8182H114V95.1558Z" fill="#508FDB"/>
<defs>
<linearGradient id="paint0_linear_105_255" x1="8" y1="80" x2="120" y2="80" gradientUnits="userSpaceOnUse">
<stop stop-color="#D5D3CF"/>
<stop offset="0.0357143" stop-color="#E4E1DE"/>
<stop offset="0.0714286" stop-color="#D5D3CF"/>
<stop offset="0.928571" stop-color="#D5D3CF"/>
<stop offset="0.964286" stop-color="#E4E1DE"/>
<stop offset="1" stop-color="#D5D3CF"/>
</linearGradient>
<linearGradient id="paint1_linear_105_255" x1="99.8718" y1="69" x2="109" y2="69" gradientUnits="userSpaceOnUse">
<stop stop-color="#E8E7E4"/>
<stop offset="0.511049" stop-color="white"/>
<stop offset="1" stop-color="#C2BFBA"/>
</linearGradient>
</defs>
</svg>
