<?xml version="1.0" encoding="UTF-8"?>
<svg height="128px" viewBox="0 0 128 128" width="128px" xmlns="http://www.w3.org/2000/svg" xmlns:xlink="http://www.w3.org/1999/xlink">
    <linearGradient id="a" gradientUnits="userSpaceOnUse" x1="8" x2="120" y1="80" y2="80">
        <stop offset="0" stop-color="#d5d3cf"/>
        <stop offset="0.0357143" stop-color="#e4e1de"/>
        <stop offset="0.0714286" stop-color="#d5d3cf"/>
        <stop offset="0.928571" stop-color="#d5d3cf"/>
        <stop offset="0.964286" stop-color="#e4e1de"/>
        <stop offset="1" stop-color="#d5d3cf"/>
    </linearGradient>
    <linearGradient id="b" gradientUnits="userSpaceOnUse" x1="99.871803" x2="109" y1="69" y2="69">
        <stop offset="0" stop-color="#e8e7e4"/>
        <stop offset="0.511049" stop-color="#ffffff"/>
        <stop offset="1" stop-color="#c2bfba"/>
    </linearGradient>
    <clipPath id="c">
        <rect height="128" width="128"/>
    </clipPath>
    <clipPath id="d">
        <rect height="128" width="128"/>
    </clipPath>
    <filter id="e" height="100%" width="100%" x="0%" y="0%">
        <feColorMatrix in="SourceGraphic" type="matrix" values="0 0 0 0 1 0 0 0 0 1 0 0 0 0 1 0 0 0 1 0"/>
    </filter>
    <mask id="f">
        <g clip-path="url(#d)" filter="url(#e)">
            <g clip-path="url(#c)">
                <path d="m 17 80 h 94 c 4.96875 0 9 4.03125 9 9 v 18 c 0 4.96875 -4.03125 9 -9 9 h -94 c -4.96875 0 -9 -4.03125 -9 -9 v -18 c 0 -4.96875 4.03125 -9 9 -9 z m 0 0" fill="url(#a)"/>
                <path d="m 17 15 h 94 c 4.96875 0 9 4.03125 9 9 v 79 c 0 4.96875 -4.03125 9 -9 9 h -94 c -4.96875 0 -9 -4.03125 -9 -9 v -79 c 0 -4.96875 4.03125 -9 9 -9 z m 0 0" fill="#f6f5f4"/>
                <path d="m 14 31 c 0 -4.96875 4.03125 -9 9 -9 h 20.324219 c 1.746093 0 3.453125 0.507812 4.917969 1.460938 l 7.015624 4.578124 c 1.464844 0.953126 3.171876 1.460938 4.917969 1.460938 h 44.824219 c 4.972656 0 9 4.03125 9 9 v 57.5 c 0 4.972656 -4.027344 9 -9 9 h -82 c -4.96875 0 -9 -4.027344 -9 -9 z m 0 0" fill="#1a5fb4"/>
                <path d="m 14 42 c 0 -4.96875 4.03125 -9 9 -9 h 82 c 4.972656 0 9 4.03125 9 9 v 7 c 0 4.96875 -4.027344 9 -9 9 h -82 c -4.96875 0 -9 -4.03125 -9 -9 z m 0 0" fill-opacity="0.078431"/>
                <path d="m 20 42 c 0 -4.96875 4.03125 -9 9 -9 h 71 c 4.972656 0 9 4.03125 9 9 v 54 c 0 4.972656 -4.027344 9 -9 9 h -71 c -4.96875 0 -9 -4.027344 -9 -9 z m 0 0" fill="url(#b)"/>
                <path d="m 14 44 c 0 -4.96875 4.03125 -9 9 -9 h 82 c 4.972656 0 9 4.03125 9 9 v 52 c 0 4.972656 -4.027344 9 -9 9 h -82 c -4.96875 0 -9 -4.027344 -9 -9 z m 0 0" fill="#3584e4"/>
                <path d="m 114 91 h -100 v 1.664062 h 100 z m 0 4.15625 h -100 v 1.660156 h 100 z m 0 0" fill="#508fdb" fill-rule="evenodd"/>
            </g>
        </g>
    </mask>
    <mask id="g">
        <g filter="url(#e)">
            <rect fill-opacity="0.8" height="128" width="128"/>
        </g>
    </mask>
    <linearGradient id="h" gradientTransform="matrix(0 0.37 -0.98462 0 295.38501 -30.360001)" gradientUnits="userSpaceOnUse" x1="300" x2="428" y1="235" y2="235">
        <stop offset="0" stop-color="#f9f06b"/>
        <stop offset="1" stop-color="#f5c211"/>
    </linearGradient>
    <clipPath id="i">
        <rect height="128" width="128"/>
    </clipPath>
    <clipPath id="j">
        <rect height="128" width="128"/>
    </clipPath>
    <path d="m 17 80 h 94 c 4.96875 0 9 4.03125 9 9 v 18 c 0 4.96875 -4.03125 9 -9 9 h -94 c -4.96875 0 -9 -4.03125 -9 -9 v -18 c 0 -4.96875 4.03125 -9 9 -9 z m 0 0" fill="url(#a)"/>
    <path d="m 17 15 h 94 c 4.96875 0 9 4.03125 9 9 v 79 c 0 4.96875 -4.03125 9 -9 9 h -94 c -4.96875 0 -9 -4.03125 -9 -9 v -79 c 0 -4.96875 4.03125 -9 9 -9 z m 0 0" fill="#f6f5f4"/>
    <path d="m 14 31 c 0 -4.96875 4.03125 -9 9 -9 h 20.324219 c 1.746093 0 3.453125 0.507812 4.917969 1.460938 l 7.015624 4.578124 c 1.464844 0.953126 3.171876 1.460938 4.917969 1.460938 h 44.824219 c 4.972656 0 9 4.03125 9 9 v 57.5 c 0 4.972656 -4.027344 9 -9 9 h -82 c -4.96875 0 -9 -4.027344 -9 -9 z m 0 0" fill="#1a5fb4"/>
    <path d="m 14 42 c 0 -4.96875 4.03125 -9 9 -9 h 82 c 4.972656 0 9 4.03125 9 9 v 7 c 0 4.96875 -4.027344 9 -9 9 h -82 c -4.96875 0 -9 -4.03125 -9 -9 z m 0 0" fill-opacity="0.078431"/>
    <path d="m 20 42 c 0 -4.96875 4.03125 -9 9 -9 h 71 c 4.972656 0 9 4.03125 9 9 v 54 c 0 4.972656 -4.027344 9 -9 9 h -71 c -4.96875 0 -9 -4.027344 -9 -9 z m 0 0" fill="url(#b)"/>
    <path d="m 14 44 c 0 -4.96875 4.03125 -9 9 -9 h 82 c 4.972656 0 9 4.03125 9 9 v 52 c 0 4.972656 -4.027344 9 -9 9 h -82 c -4.96875 0 -9 -4.027344 -9 -9 z m 0 0" fill="#3584e4"/>
    <path d="m 114 91 h -100 v 1.664062 h 100 z m 0 4.15625 h -100 v 1.660156 h 100 z m 0 0" fill="#508fdb" fill-rule="evenodd"/>
    <g clip-path="url(#j)" mask="url(#f)">
        <g clip-path="url(#i)" mask="url(#g)">
            <path d="m 128 80.640625 v 47.359375 h -128 v -47.359375 z m 0 0" fill="url(#h)"/>
            <path d="m 13.308594 80.640625 l 47.355468 47.359375 h 21.214844 l -47.359375 -47.359375 z m 42.421875 0 l 47.363281 47.359375 h 21.214844 l -47.363282 -47.359375 z m 42.429687 0 l 29.839844 29.839844 v -21.210938 l -8.628906 -8.628906 z m -98.160156 7.90625 v 21.214844 l 18.238281 18.238281 h 21.214844 z m 0 0"/>
        </g>
    </g>
</svg>
